<?xml version="1.0" encoding="UTF-8"?>
<svg width="20px" height="25px" viewBox="0 0 20 25" version="1.1" xmlns="http://www.w3.org/2000/svg" xmlns:xlink="http://www.w3.org/1999/xlink">
    <!-- Generator: Sketch 42 (36781) - http://www.bohemiancoding.com/sketch -->
    <title>Page 1</title>
    <desc>Created with Sketch.</desc>
    <defs></defs>
    <g id="CP---Person-Profile-" stroke="none" stroke-width="1" fill="none" fill-rule="evenodd">
        <g id="CP-Profile---Posts-Dropdown" transform="translate(-20.000000, -15.000000)">
            <g id="LEFT-NAV" transform="translate(0.000000, -1.000000)">
                <g id="Page-1" transform="translate(20.000000, 16.000000)">
                    <path d="M3.55433232,12.7375298 L16.3499287,12.7375298 C16.1722121,18.1875061 14.0988516,21.7418384 9.95213051,23.4597657 C5.80540946,21.7418384 3.73204894,18.1875061 3.55433232,12.7375298 L3.55433232,12.7375298 Z" id="Path" stroke="#D0D9E2" fill="#D0D9E2"></path>
                    <path d="M3.55433232,12.7375298 L16.3499287,12.7375298 C16.1722121,18.1875061 14.0988516,21.7418384 9.95213051,23.4597657 C5.80540946,21.7418384 3.73204894,18.1875061 3.55433232,12.7375298 L3.55433232,12.7375298 Z M17.5347061,7.70222571 L16.8238397,8.41309217 L16.1129732,7.76146458 L16.7646008,7.10983699 C17.0607952,7.2875536 17.2977506,7.46527022 17.5347061,7.70222571 L17.5347061,7.70222571 Z M3.02118248,7.10983699 L3.67281007,7.76146458 L3.02118248,8.41309217 L2.31031601,7.70222571 C2.5472715,7.52450909 2.84346586,7.2875536 3.02118248,7.10983699 L3.02118248,7.10983699 Z M1.4809718,10.0717806 L1.4809718,10.0125417 C1.4809718,9.65710849 1.54021067,9.36091413 1.59944955,9.06471977 L2.01412165,9.47939187 L1.4809718,10.0717806 Z M5.86464834,11.256558 L5.80540946,11.1973192 L6.45703706,10.5456916 L7.10866465,11.256558 L5.86464834,11.256558 L5.86464834,11.256558 Z M9.30050292,11.256558 L9.24126404,11.1973192 L9.89289164,10.5456916 L10.5445192,11.256558 L9.30050292,11.256558 L9.30050292,11.256558 Z M12.7363575,11.256558 L12.6771186,11.1973192 L13.3287462,10.5456916 L13.9803738,11.256558 L12.7363575,11.256558 L12.7363575,11.256558 Z M15.0466735,8.82776428 L15.6983011,9.47939187 L15.0466735,10.1310195 L14.3950459,9.47939187 L15.0466735,8.82776428 Z M14.0396127,7.76146458 L13.3879851,8.41309217 L12.7363575,7.76146458 L13.3879851,7.10983699 L14.0396127,7.76146458 Z M8.88583081,9.47939187 L8.23420322,10.1310195 L7.58257563,9.47939187 L8.23420322,8.82776428 L8.88583081,9.47939187 Z M11.6108189,8.82776428 L12.2624465,9.47939187 L11.6108189,10.1310195 L10.9591913,9.47939187 L11.6108189,8.82776428 Z M9.95213051,8.41309217 L9.30050292,7.76146458 L9.95213051,7.10983699 L10.6037581,7.76146458 L9.95213051,8.41309217 Z M5.44997623,9.47939187 L4.73910977,10.1310195 L4.08748217,9.47939187 L4.73910977,8.82776428 L5.44997623,9.47939187 Z M5.86464834,7.76146458 L6.51627593,7.10983699 L7.16790352,7.76146458 L6.51627593,8.41309217 L5.86464834,7.76146458 Z M16.2314509,11.256558 L16.1722121,11.1973192 L16.8238397,10.5456916 L17.4754673,11.1973192 C17.4162284,11.256558 17.2977506,11.256558 17.1792729,11.256558 L16.2314509,11.256558 Z M18.4232892,9.95330285 L17.8901394,9.420153 L18.3048115,9.00548089 C18.3640503,9.30167525 18.4232892,9.65710849 18.4232892,9.95330285 C18.4232892,10.0125417 18.4232892,10.0125417 18.4232892,9.95330285 L18.4232892,9.95330285 Z M2.42879376,11.1973192 L3.08042135,10.5456916 L3.73204894,11.1973192 L3.67281007,11.256558 L2.72498812,11.256558 C2.60651037,11.256558 2.48803263,11.1973192 2.42879376,11.1973192 L2.42879376,11.1973192 Z M0.770105337,11.8489468 L0.770105337,11.8489468 C1.12553857,12.20438 1.59944955,12.5005743 2.13259939,12.6190521 C2.25107714,18.8983725 4.79834864,23.0450936 9.71517502,24.9407375 C9.83365277,24.9999764 9.89289164,24.9999764 10.0113694,24.9999764 C10.1298471,24.9999764 10.2483249,24.9999764 10.3075637,24.9407375 C15.1651513,22.9858547 17.7124228,18.8391337 17.8901394,12.6190521 C18.4232892,12.5005743 18.8972002,12.20438 19.2526334,11.8489468 L19.2526334,11.7897079 C19.6673055,11.3157969 19.9634999,10.6641693 19.9634999,9.95330285 C19.9634999,7.99842007 18.7194836,6.28049278 16.9423174,5.56962631 C16.4091676,5.3919097 15.8167788,5.27343195 15.2243901,5.27343195 L10.7814747,5.27343195 C11.136908,2.37072722 13.5064628,1.42290527 13.5064628,1.42290527 C13.8618961,1.30442752 14.0396127,0.830516548 13.9211349,0.475083315 C13.8026572,0.119650083 13.3287462,-0.117305406 12.973313,0.0604112105 C12.8548352,0.119650083 9.65593615,1.42290527 9.30050292,5.33267083 L4.79834864,5.33267083 C4.20595992,5.33267083 3.6135712,5.45114857 3.08042135,5.62886519 L3.02118248,5.62886519 C1.24401631,6.28049278 0,7.99842007 0,10.0125417 C0,10.6641693 0.236955488,11.3157969 0.651627593,11.7897079 C0.651627593,11.7897079 0.651627593,11.8489468 0.770105337,11.8489468 L0.770105337,11.8489468 Z" id="Fill-1" fill="#2E3955"></path>
                </g>
            </g>
        </g>
    </g>
</svg>